<?xml version="1.0" standalone="no"?>
<!DOCTYPE svg PUBLIC "-//W3C//DTD SVG 20010904//EN"
 "http://www.w3.org/TR/2001/REC-SVG-20010904/DTD/svg10.dtd">
<svg version="1.0" xmlns="http://www.w3.org/2000/svg"
 width="700.000000pt" height="700.000000pt" viewBox="0 0 700.000000 700.000000"
 preserveAspectRatio="xMidYMid meet">
<metadata>
Created by potrace 1.14, written by Peter Selinger 2001-2017
</metadata>
<g transform="translate(0.000000,700.000000) scale(0.100000,-0.100000)"
fill="#000000" stroke="none">
<path d="M5316 5863 c-1 -2 -787 -11 -1182 -13 -184 -2 -212 -6 -249 -44 -27
-26 -35 -66 -35 -164 0 -107 -14 -150 -61 -185 -31 -22 -50 -24 -429 -32 -151
-3 -363 -8 -470 -11 -107 -3 -276 -6 -375 -8 -256 -6 -253 -8 -312 214 -35
134 -52 166 -100 191 -34 17 -11 17 -1008 5 -209 -3 -493 -5 -631 -6 -215 -1
-256 -4 -284 -18 -70 -35 -86 -87 -64 -202 6 -36 15 -83 18 -105 4 -22 11 -69
17 -105 6 -36 13 -74 15 -85 8 -53 34 -203 39 -225 2 -14 11 -67 20 -117 21
-128 44 -264 49 -288 2 -11 7 -42 10 -68 4 -27 9 -59 12 -70 2 -12 6 -33 8
-47 7 -41 20 -115 21 -120 1 -3 5 -30 10 -60 5 -30 9 -57 10 -60 0 -3 4 -27 9
-53 4 -27 9 -59 12 -70 2 -12 11 -62 19 -112 8 -49 17 -101 19 -115 5 -24 33
-191 41 -240 2 -14 20 -119 40 -235 20 -115 38 -226 41 -245 3 -19 10 -59 15
-89 6 -30 12 -64 14 -75 1 -12 8 -52 14 -91 7 -38 14 -83 17 -100 3 -16 7 -37
9 -45 2 -8 6 -33 10 -55 6 -44 110 -658 126 -745 5 -30 12 -71 15 -90 3 -19
14 -87 25 -150 11 -63 22 -126 24 -140 2 -14 6 -41 10 -60 3 -19 10 -62 16
-95 17 -104 20 -113 42 -138 45 -51 14 -49 931 -53 1253 -5 3435 -15 4227 -18
378 -2 699 -1 713 1 37 8 84 57 92 98 4 23 -24 190 -90 532 -52 274 -97 512
-100 528 -3 17 -8 41 -11 55 -3 14 -16 84 -30 155 -14 72 -27 139 -29 150 -2
11 -11 58 -20 105 -9 47 -18 96 -21 110 -2 14 -12 63 -21 110 -9 47 -25 130
-35 185 -11 55 -22 112 -24 127 -3 15 -21 107 -40 205 -29 151 -73 381 -90
473 -3 14 -8 39 -11 55 -4 17 -8 37 -9 45 -1 8 -5 29 -8 45 -4 17 -9 44 -12
60 -7 42 -26 142 -110 575 -14 74 -30 158 -35 185 -45 251 -142 742 -152 768
-6 15 -25 38 -42 50 -30 22 -37 22 -324 22 -162 0 -294 -1 -296 -2z"/>
</g>
</svg>
